HIERARCHY
ROOT Hips
{
 OFFSET 0.000000 0.000000 0.000000
 CHANNELS 6 Xposition Yposition Zposition Yrotation Xrotation Zrotation
 JOINT Chest
 {
  OFFSET 0.000000 9.585900 0.002600
  CHANNELS 3 Yrotation Xrotation Zrotation
  JOINT Chest2
  {
   OFFSET 0.000000 9.601200 -0.005300
   CHANNELS 3 Yrotation Xrotation Zrotation
   JOINT Chest3
   {
    OFFSET 0.000000 9.561800 0.000000
    CHANNELS 3 Yrotation Xrotation Zrotation
    JOINT Chest4
    {
     OFFSET 0.000000 9.552100 0.000000
     CHANNELS 3 Yrotation Xrotation Zrotation
     JOINT Neck
     {
      OFFSET 0.000000 14.453000 0.000000
      CHANNELS 3 Yrotation Xrotation Zrotation
      JOINT Head
      {
       OFFSET 0.000000 8.936500 -0.011300
       CHANNELS 3 Yrotation Xrotation Zrotation
       End Site
       {
        OFFSET 0.000000 17.073600 -0.006000
       }
      }
     }
     JOINT RightCollar
     {
      OFFSET -2.921100 9.558500 0.000000
      CHANNELS 3 Yrotation Xrotation Zrotation
      JOINT RightShoulder
      {
       OFFSET -13.519700 0.000000 0.000000
       CHANNELS 3 Yrotation Xrotation Zrotation
       JOINT RightElbow
       {
        OFFSET 0.000000 -29.696600 0.000000
        CHANNELS 3 Yrotation Xrotation Zrotation
        JOINT RightWrist
        {
         OFFSET 0.000000 -24.004700 0.000000
         CHANNELS 3 Yrotation Xrotation Zrotation
         End Site
         {
          OFFSET 0.000000 -17.728500 0.000000
         }
        }
       }
      }
     }
     JOINT LeftCollar
     {
      OFFSET 2.921100 9.558500 0.000000
      CHANNELS 3 Yrotation Xrotation Zrotation
      JOINT LeftShoulder
      {
       OFFSET 13.519700 0.000000 0.000000
       CHANNELS 3 Yrotation Xrotation Zrotation
       JOINT LeftElbow
       {
        OFFSET 0.000000 -29.696600 0.000000
        CHANNELS 3 Yrotation Xrotation Zrotation
        JOINT LeftWrist
        {
         OFFSET 0.000000 -24.004700 0.000000
         CHANNELS 3 Yrotation Xrotation Zrotation
         End Site
         {
          OFFSET 0.000000 -17.728500 0.000000
         }
        }
       }
      }
     }
    }
   }
  }
 }
 JOINT RightHip
 {
  OFFSET -7.771700 -0.012900 -0.001300
  CHANNELS 3 Yrotation Xrotation Zrotation
  JOINT RightKnee
  {
   OFFSET 0.000000 -40.869800 0.001200
   CHANNELS 3 Yrotation Xrotation Zrotation
   JOINT RightAnkle
   {
    OFFSET 0.000000 -39.717900 0.002100
    CHANNELS 3 Yrotation Xrotation Zrotation
    JOINT RightToe
    {
     OFFSET 0.000000 -4.965400 11.033500
     CHANNELS 3 Yrotation Xrotation Zrotation
     End Site
     {
      OFFSET 0.000000 -1.423100 5.872300
     }
    }
   }
  }
 }
 JOINT LeftHip
 {
  OFFSET 7.771700 -0.012900 -0.001300
  CHANNELS 3 Yrotation Xrotation Zrotation
  JOINT LeftKnee
  {
   OFFSET 0.000000 -40.869800 0.001200
   CHANNELS 3 Yrotation Xrotation Zrotation
   JOINT LeftAnkle
   {
    OFFSET 0.000000 -39.717900 0.002100
    CHANNELS 3 Yrotation Xrotation Zrotation
    JOINT LeftToe
    {
     OFFSET 0.000000 -4.965400 11.033500
     CHANNELS 3 Yrotation Xrotation Zrotation
     End Site
     {
      OFFSET 0.000000 -1.423100 5.872300
     }
    }
   }
  }
 }
}
MOTION
Frames: 12
Frame Time: 0.008333
0.000000 85.388000 0.000000 0.000000 -5.767877 0.000000 0.000000 11.653817 0.000000 0.000000 -5.885947 0.000000 0.000000 -0.000000 0.000000 0.000000 -0.000000 0.000000 0.000000 12.528835 0.000000 0.000000 0.711642 0.000000 0.000000 -0.000000 0.000000 0.000000 0.000000 -90.000000 0.000000 -2.309062 0.000000 0.000000 2.309062 0.000000 0.000000 -0.000000 0.000000 0.000000 -0.000000 90.000000 0.000000 -2.309062 0.000000 0.000000 2.309062 0.000000 0.000000 8.520406 0.000000 0.000000 1.905762 0.000000 -0.000000 -4.658285 0.000000 0.000000 -0.000000 0.000000 0.000000 8.520406 0.000000 0.000000 1.905762 0.000000 -0.000000 -4.658285 0.000000 0.000000 -0.000000 0.000000
-45.333379 43.825150 29.029606 174.648369 -26.012069 0.086942 -0.234750 17.182098 2.898519 -0.081574 1.890691 0.361872 -0.106668 3.143843 0.605395 -0.296664 15.185111 2.912614 3.365218 16.877298 -10.593856 6.290278 -7.309615 -12.689691 16.119004 -2.874676 -6.818931 -4.420329 -33.030972 -33.423663 169.952744 -63.445887 -168.915661 -4.784502 -7.477407 -25.119084 -21.393714 -3.714031 -5.192571 26.126352 -25.195894 15.980601 -176.823980 -52.924826 174.636857 16.247071 -1.473781 23.464999 -1.482677 -66.346162 11.826922 -150.510552 68.116120 -150.149890 -14.559062 -26.730705 10.320306 0.385310 -0.917874 0.162608 4.724462 -54.561325 -3.780220 175.106887 62.263389 175.815993 -1.349069 -37.597275 2.346337 0.005290 0.095032 0.010114
-45.337122 43.822586 29.035961 174.656832 -25.890913 0.090473 -0.216809 17.098952 2.908707 -0.079212 1.876781 0.361578 -0.096898 3.124190 0.606580 -0.287492 15.134433 2.924551 3.371727 16.849464 -10.588060 6.296542 -7.341370 -12.684890 16.119183 -2.906974 -6.778071 -4.448666 -32.956235 -33.394674 169.971280 -63.439282 -168.915842 -4.779038 -7.461654 -25.132210 -21.394129 -3.710194 -5.185810 26.047147 -25.057049 15.929272 -176.686710 -52.888421 174.522667 16.204452 -1.360343 23.407196 -1.437151 -66.459592 11.741324 -150.589616 68.137680 -150.208007 -14.501297 -26.783769 10.342206 0.343813 -0.876642 0.117306 4.772049 -54.691109 -3.835657 175.095355 62.265486 175.815819 -1.352101 -37.582895 2.354138 0.006930 0.093875 0.009600
-45.339257 43.823014 29.036149 174.672449 -25.799278 0.084266 -0.186566 17.078755 2.935112 -0.094461 1.828967 0.355344 -0.091651 3.106605 0.607453 -0.269324 15.085591 2.938525 3.381416 16.816652 -10.582927 6.306688 -7.378499 -12.681905 16.110661 -2.920744 -6.752080 -4.486316 -32.902401 -33.347492 170.006989 -63.424155 -168.930234 -4.743674 -7.448609 -25.127488 -21.388751 -3.713715 -5.180499 25.974442 -24.953219 15.901328 -176.570212 -52.947596 174.386575 16.161473 -1.322081 23.370615 -1.448770 -66.548910 11.728573 -150.621717 68.136839 -150.228164 -14.497857 -26.801855 10.342932 0.362312 -0.868935 0.123584 4.799160 -54.785202 -3.872506 175.086909 62.265929 175.818377 -1.355887 -37.574325 2.362740 0.006775 0.091465 0.007675
-45.340665 43.824772 29.033308 174.701227 -25.719409 0.070061 -0.205184 17.009728 2.941198 -0.055925 1.871918 0.368474 -0.114652 3.059427 0.599867 -0.267692 15.059023 2.943786 3.417800 16.762343 -10.574611 6.320426 -7.418839 -12.681489 16.121329 -2.939959 -6.735506 -4.539100 -32.865937 -33.285991 169.986982 -63.400580 -168.874083 -4.743317 -7.439654 -25.137920 -21.352698 -3.742549 -5.166248 25.903083 -24.846632 15.888373 -176.465253 -53.006195 174.257550 16.115224 -1.284442 23.345887 -1.478385 -66.625216 11.719232 -150.660935 68.128194 -150.246705 -14.500780 -26.821274 10.335203 0.391139 -0.874182 0.137626 4.794558 -54.866575 -3.890908 175.088356 62.265639 175.822194 -1.358408 -37.567440 2.370060 0.005332 0.088732 0.006866
-45.343812 43.824426 29.034273 174.702214 -25.608301 0.077013 -0.182851 16.941052 2.949908 -0.047148 1.866148 0.371908 -0.138898 3.023726 0.591041 -0.218985 15.009584 2.969549 3.419909 16.733535 -10.573507 6.336735 -7.461191 -12.682336 16.103832 -2.925645 -6.721112 -4.613655 -32.840966 -33.218310 170.138317 -63.357518 -168.983481 -4.780923 -7.421191 -25.208341 -21.343287 -3.758154 -5.171046 25.825670 -24.722321 15.885112 -176.351342 -53.029404 174.136369 16.069634 -1.223804 23.325232 -1.459187 -66.734093 11.682634 -150.699220 68.134664 -150.280474 -14.482449 -26.838859 10.354774 0.377668 -0.869524 0.121058 4.830061 -54.978425 -3.930112 175.084574 62.267239 175.819374 -1.361988 -37.559673 2.377298 0.004589 0.091643 0.005380
-45.351488 43.826161 29.030032 174.730863 -25.526970 0.102725 -0.166796 16.944352 2.946253 -0.068347 1.810434 0.361588 -0.137050 3.001239 0.592025 -0.192134 14.956653 2.987557 3.422391 16.702549 -10.571018 6.352180 -7.506117 -12.681387 16.077674 -2.904650 -6.710803 -4.662632 -32.823905 -33.188886 170.350985 -63.314508 -169.178007 -4.789022 -7.402310 -25.254649 -21.332555 -3.777217 -5.173721 25.756839 -24.633699 15.886552 -176.253844 -53.081369 174.010656 16.026645 -1.163948 23.314546 -1.387073 -66.811678 11.562427 -150.710411 68.129822 -150.279454 -14.529562 -26.814657 10.406616 0.443025 -0.898408 0.094388 4.904380 -55.051019 -4.043914 175.051273 62.275582 175.799121 -1.368064 -37.551482 2.385504 0.006281 0.091830 0.005178
-45.356906 43.826377 29.028822 174.741770 -25.427411 0.121475 -0.162059 16.878122 2.936045 -0.073889 1.792472 0.358863 -0.089541 3.012456 0.605964 -0.206889 14.900141 2.992914 3.434491 16.659826 -10.564731 6.364978 -7.554317 -12.677965 16.038540 -2.884770 -6.708095 -4.747845 -32.828815 -33.076980 170.489161 -63.243840 -169.249242 -4.799178 -7.390757 -25.287267 -21.313877 -3.804742 -5.166708 25.687405 -24.547681 15.885961 -176.163942 -53.126568 173.879178 15.982267 -1.097311 23.317074 -1.285174 -66.912633 11.423955 -150.660467 68.111392 -150.195516 -14.497368 -26.823412 10.415400 0.453860 -0.907313 0.095970 4.949536 -55.147900 -4.106688 175.054546 62.280133 175.796929 -1.369913 -37.542177 2.395002 0.005357 0.087710 0.006636
-45.360856 43.826557 29.027606 174.751185 -25.330651 0.131943 -0.167240 16.792789 2.926084 -0.066206 1.798343 0.361625 -0.079703 3.008192 0.608153 -0.180887 14.866634 3.006499 3.445325 16.612755 -10.558185 6.376292 -7.607525 -12.673933 16.023478 -2.892187 -6.690263 -4.841769 -32.804205 -32.987364 170.637432 -63.157811 -169.332172 -4.807840 -7.379055 -25.321124 -21.295067 -3.834508 -5.157001 25.601359 -24.438827 15.899398 -176.092514 -53.138393 173.769045 15.936462 -1.013933 23.333224 -1.254137 -67.009810 11.379658 -150.629910 68.106736 -150.159847 -14.520322 -26.801991 10.429611 0.390442 -0.938721 0.116867 4.983076 -55.243276 -4.153241 175.053591 62.282087 175.793482 -1.374901 -37.534664 2.403390 0.005218 0.086957 0.006953
-45.360603 43.827420 29.025275 174.727944 -25.246364 0.131069 -0.113343 16.755242 2.956435 -0.042177 1.818508 0.371836 -0.122196 2.944362 0.591592 -0.136638 14.851196 3.022118 3.423997 16.589895 -10.556342 6.411533 -7.698169 -12.679746 16.055930 -2.918495 -6.671519 -4.961238 -32.755943 -32.924245 170.803286 -63.064369 -169.444411 -4.818472 -7.364958 -25.360962 -21.275551 -3.863565 -5.145867 25.475483 -24.291186 15.970249 -176.073238 -53.103917 173.746783 15.896697 -0.910438 23.357832 -1.220453 -67.096476 11.359747 -150.636544 68.106622 -150.149838 -14.470807 -26.812485 10.423378 0.363772 -0.933572 0.112990 5.017468 -55.323317 -4.160146 175.065094 62.278111 175.811627 -1.368736 -37.536270 2.406376 0.005803 0.088758 0.004371
-45.365112 43.823908 29.032027 174.701742 -25.102430 0.153535 -0.062539 16.661977 2.968790 -0.031249 1.819083 0.372027 -0.127369 2.919269 0.590542 -0.116276 14.818365 3.023437 3.447175 16.522345 -10.548944 6.408150 -7.741556 -12.673497 16.043260 -2.926775 -6.660874 -5.045446 -32.729284 -32.837280 170.963426 -62.954841 -169.550825 -4.829447 -7.347589 -25.409431 -21.276277 -3.882870 -5.134155 25.395623 -24.217114 16.022993 -176.122055 -53.105380 173.722194 15.875641 -0.793605 23.379687 -1.113208 -67.249212 11.254120 -150.503395 68.092637 -150.002388 -14.359955 -26.779449 10.401530 0.349310 -0.938742 0.116818 5.095686 -55.471226 -4.218237 175.076956 62.280014 175.825535 -1.360798 -37.526419 2.404753 0.004521 0.088374 0.011425
-45.368986 43.823294 29.032924 174.712115 -25.000343 0.158979 -0.044232 16.608043 2.979752 -0.025114 1.812293 0.369458 -0.088258 2.933566 0.597905 -0.147175 14.759417 3.016924 3.483017 16.455940 -10.545581 6.403419 -7.786916 -12.665712 16.041718 -2.931961 -6.649777 -5.127690 -32.706327 -32.741284 171.128362 -62.830250 -169.657244 -4.835640 -7.325857 -25.471306 -21.301238 -3.888900 -5.125479 25.350468 -24.167776 16.092848 -176.217335 -53.105321 173.730332 15.877216 -0.673277 23.380628 -1.078089 -67.355435 11.200160 -150.480611 68.091225 -149.972348 -14.338045 -26.727539 10.386856 0.342060 -0.959268 0.130832 5.127317 -55.573933 -4.262374 175.085508 62.282036 175.833812 -1.357428 -37.523369 2.408268 0.004203 0.091494 0.014002
